<?xml version="1.0" standalone="no"?>
<!DOCTYPE svg PUBLIC "-//W3C//DTD SVG 20010904//EN"
 "http://www.w3.org/TR/2001/REC-SVG-20010904/DTD/svg10.dtd">
<svg version="1.0" xmlns="http://www.w3.org/2000/svg"
 width="1920.000000pt" height="1080.000000pt" viewBox="0 0 1920.000000 1080.000000"
 preserveAspectRatio="xMidYMid meet">

<g transform="translate(0.000000,1080.000000) scale(0.100000,-0.100000)"
fill="#000000" stroke="none">
<path d="M8976 9395 c3 -16 8 -36 10 -44 2 -8 11 -107 19 -222 12 -182 37
-340 52 -325 3 2 0 21 -6 43 -6 21 -16 112 -22 203 -10 171 -32 331 -49 359
-8 12 -9 8 -4 -14z"/>
<path d="M6189 8981 c-256 -86 -468 -191 -694 -342 -178 -120 -278 -202 -426
-349 -423 -422 -694 -944 -788 -1520 -23 -141 -42 -366 -40 -485 1 -58 5 -31
15 100 31 441 113 760 284 1110 140 285 297 509 515 734 344 354 676 565 1175
747 183 67 154 70 -41 5z"/>
<path d="M9767 8810 c-3 -11 -20 -27 -39 -35 l-33 -14 31 -1 c33 0 64 25 64
53 0 24 -17 21 -23 -3z"/>
<path d="M9735 8445 c0 -60 2 -71 13 -62 10 8 12 24 7 55 -12 80 -20 82 -20 7z"/>
<path d="M9170 8313 c8 -11 46 -59 83 -105 76 -94 218 -299 296 -431 29 -48
57 -85 62 -81 5 3 8 8 5 12 -113 191 -174 283 -264 395 -30 38 -51 71 -47 75
3 4 11 -2 17 -13 6 -11 47 -56 91 -100 59 -59 71 -68 46 -35 -63 86 -340 357
-289 283z"/>
<path d="M8660 8303 c66 -21 242 -30 257 -12 9 12 -6 14 -95 14 -59 0 -129 3
-157 7 l-50 6 45 -15z"/>
<path d="M9998 8296 c-82 -29 -185 -101 -227 -158 -55 -75 -73 -139 -78 -278
-3 -89 -1 -121 6 -110 6 8 11 43 11 78 0 226 128 392 351 458 27 8 51 19 54
24 11 18 -48 10 -117 -14z"/>
<path d="M8950 8059 c-31 -13 -90 -69 -90 -86 0 -19 8 -16 49 16 69 55 98 64
180 59 69 -4 73 -4 46 8 -35 15 -149 17 -185 3z"/>
<path d="M8542 8013 c-7 -13 -25 -29 -40 -37 l-27 -15 32 -1 c35 0 57 26 51
58 -3 14 -6 14 -16 -5z"/>
<path d="M8708 7995 c-28 -24 -24 -41 6 -29 14 5 32 41 24 49 -1 2 -15 -7 -30
-20z"/>
<path d="M10416 7929 c-47 -41 -54 -83 -31 -174 41 -157 11 -212 -134 -250
-102 -26 -179 -70 -220 -126 -37 -50 -12 -52 42 -3 61 54 116 83 216 113 119
36 144 76 121 196 -30 154 -16 199 80 247 l55 27 -47 1 c-39 0 -54 -6 -82 -31z"/>
<path d="M9580 7842 c0 -13 79 -152 86 -152 5 0 -59 126 -75 150 -8 11 -11 12
-11 2z"/>
<path d="M10045 7788 c-63 -84 -102 -164 -126 -256 -18 -69 -26 -173 -13 -160
3 3 16 48 28 99 16 65 45 136 95 233 39 77 69 141 67 143 -2 2 -25 -24 -51
-59z"/>
<path d="M9790 7798 c-23 -52 -65 -226 -56 -235 11 -11 16 2 41 96 14 50 32
105 40 121 8 16 15 36 15 45 0 29 -21 15 -40 -27z"/>
<path d="M7863 7563 c12 -11 582 -340 585 -337 10 7 -84 127 -138 177 -69 64
-211 138 -298 156 -59 12 -159 15 -149 4z"/>
<path d="M10390 7263 c0 -43 11 -148 25 -233 28 -175 31 -250 11 -331 -18 -77
-50 -129 -139 -226 -70 -76 -114 -139 -104 -149 5 -5 176 177 211 225 66 88
77 238 37 471 -11 69 -21 168 -21 223 0 58 -4 97 -10 97 -6 0 -10 -32 -10 -77z"/>
<path d="M9100 7320 c0 -5 13 -10 29 -10 16 0 38 -3 48 -6 16 -5 16 -4 -1 10
-22 18 -76 22 -76 6z"/>
<path d="M9387 7110 c12 -5 57 -12 100 -15 43 -4 93 -11 112 -16 57 -14 48 -1
-10 15 -63 17 -237 32 -202 16z"/>
<path d="M9822 7025 c0 -22 4 -53 8 -70 7 -28 8 -28 8 10 0 22 -4 54 -8 70 -7
28 -8 28 -8 -10z"/>
<path d="M9970 6903 c0 -6 6 -42 14 -80 42 -198 59 -571 36 -778 -16 -146 -60
-371 -96 -497 -51 -178 -97 -297 -189 -483 -349 -708 -1012 -1257 -1787 -1481
-120 -34 -166 -53 -98 -39 75 14 315 87 403 121 389 154 796 434 1069 738 286
318 484 669 607 1074 51 172 97 265 169 352 94 111 172 159 261 161 34 0 35 1
11 10 -58 24 -167 -12 -234 -77 -43 -42 -75 -91 -129 -194 -21 -41 -36 -66
-33 -55 18 63 49 223 62 319 17 134 21 516 5 631 -20 143 -43 253 -57 272 -7
10 -14 13 -14 6z"/>
<path d="M8010 6896 c0 -12 75 -46 101 -46 24 0 29 4 29 25 0 24 -2 25 -65 25
-36 0 -65 -2 -65 -4z"/>
<path d="M10109 6770 c9 -21 17 -37 19 -36 7 8 -12 65 -23 70 -9 3 -9 -6 4
-34z"/>
<path d="M9905 6545 c96 -299 20 -855 -167 -1233 -34 -67 -58 -125 -55 -129
24 -23 84 96 151 298 77 234 120 465 132 715 6 119 4 137 -21 234 -14 57 -31
111 -36 120 -8 12 -9 11 -4 -5z"/>
<path d="M10329 6327 c-39 -50 -102 -158 -96 -164 8 -7 47 11 47 23 0 7 25 49
55 93 30 44 55 85 55 91 0 23 -22 7 -61 -43z"/>
<path d="M9590 6235 c46 -18 64 -17 25 0 -16 8 -37 14 -45 14 -8 0 1 -7 20
-14z"/>
<path d="M4253 6125 c0 -38 2 -53 4 -32 2 20 2 52 0 70 -2 17 -4 1 -4 -38z"/>
<path d="M4263 6005 c0 -22 2 -30 4 -17 2 12 2 30 0 40 -3 9 -5 -1 -4 -23z"/>
<path d="M10478 5995 c-2 -19 0 -35 4 -35 4 0 8 16 8 35 0 19 -2 35 -4 35 -2
0 -6 -16 -8 -35z"/>
<path d="M4272 5920 c0 -19 2 -27 5 -17 2 9 2 25 0 35 -3 9 -5 1 -5 -18z"/>
<path d="M4282 5855 c0 -16 2 -22 5 -12 2 9 2 23 0 30 -3 6 -5 -1 -5 -18z"/>
<path d="M4315 5685 c4 -22 20 -87 38 -144 27 -91 32 -100 39 -76 4 16 3 37
-4 48 -6 11 -26 64 -44 116 -22 62 -32 82 -29 56z"/>
<path d="M9510 5676 c0 -2 15 -9 33 -15 29 -10 30 -9 13 4 -18 14 -46 20 -46
11z"/>
<path d="M6374 5373 c-27 -84 -53 -108 -139 -126 -48 -10 -55 -14 -55 -35 l0
-24 263 7 c144 4 263 8 264 9 3 3 -315 186 -322 186 -3 0 -8 -8 -11 -17z"/>
<path d="M6994 5363 c-22 -74 -62 -105 -144 -111 -56 -4 -60 -6 -60 -29 0 -13
7 -26 15 -29 8 -3 125 -2 260 3 l247 8 -148 85 c-175 101 -163 96 -170 73z"/>
<path d="M4768 5183 c7 -3 16 -2 19 1 4 3 -2 6 -13 5 -11 0 -14 -3 -6 -6z"/>
<path d="M4945 5180 c-33 -4 -80 -6 -105 -4 -39 3 -41 2 -15 -5 52 -15 169
-13 191 4 21 16 22 16 -71 5z"/>
<path d="M4931 4972 c-1 -34 -62 -92 -97 -92 -15 0 -25 -3 -21 -6 3 -3 22 -6
42 -6 60 0 104 57 84 108 -7 17 -8 17 -8 -4z"/>
<path d="M5050 4940 c-13 -8 -12 -10 3 -10 9 0 17 5 17 10 0 12 -1 12 -20 0z"/>
<path d="M6195 4941 c-7 -12 21 -40 40 -41 6 0 6 3 -1 8 -6 4 -15 15 -21 26
-7 13 -12 15 -18 7z"/>
<path d="M4516 4830 c37 -253 -10 -437 -138 -540 -31 -25 -54 -48 -52 -51 17
-29 132 70 169 144 56 115 68 283 30 427 -8 30 -12 39 -9 20z"/>
<path d="M7170 4799 c38 -30 60 -41 60 -30 0 10 -61 51 -76 51 -5 0 2 -9 16
-21z"/>
<path d="M6218 4535 c-4 -34 -3 -35 28 -35 28 0 31 3 26 23 -5 20 -29 46 -43
47 -4 0 -9 -16 -11 -35z"/>
<path d="M5444 4449 c-43 -13 -78 -34 -113 -65 -86 -78 -62 -72 94 22 22 13
64 29 93 35 29 7 55 16 58 21 9 15 -70 7 -132 -13z"/>
<path d="M7228 4400 c-67 -41 -173 -77 -266 -90 -45 -7 -82 -16 -82 -21 0 -5
12 -7 28 -4 15 2 68 6 118 9 127 8 365 60 347 76 -4 4 -28 19 -53 33 l-45 25
-47 -28z"/>
<path d="M5145 4242 c38 -39 65 -72 59 -72 -5 0 -15 5 -22 12 -8 8 -12 9 -12
1 0 -6 28 -29 63 -51 102 -64 116 -67 52 -11 -33 30 -94 85 -135 123 l-75 70
70 -72z m116 -108 c9 -11 2 -9 -18 6 -18 13 -33 25 -33 27 0 8 38 -17 51 -33z"/>
<path d="M4798 4189 c-33 -24 -36 -39 -9 -39 12 0 23 11 30 30 5 17 9 30 8 30
-1 0 -14 -10 -29 -21z"/>
<path d="M6025 4009 c28 -86 20 -257 -15 -350 -27 -73 -85 -147 -143 -183 -37
-23 -65 -31 -120 -36 l-72 -6 49 -8 c31 -6 67 -4 102 3 71 16 152 88 190 169
36 76 55 205 43 292 -11 74 -27 140 -35 140 -3 0 -2 -9 1 -21z"/>
<path d="M4565 3960 c-17 -18 -17 -20 -1 -20 9 0 19 7 23 15 9 25 -2 27 -22 5z"/>
<path d="M4695 3930 c-3 -5 -1 -10 4 -10 6 0 11 5 11 10 0 6 -2 10 -4 10 -3 0
-8 -4 -11 -10z"/>
<path d="M6245 3796 c-5 -10 -22 -24 -39 -32 l-31 -13 32 -1 c33 0 59 28 50
53 -3 7 -8 5 -12 -7z"/>
<path d="M5095 3779 c17 -6 111 -14 210 -19 99 -5 194 -11 210 -14 17 -3 10 1
-15 9 -24 8 -100 17 -170 20 -69 3 -156 7 -195 10 -56 3 -64 2 -40 -6z"/>
<path d="M6448 3727 c-12 -26 -27 -39 -50 -46 l-33 -9 36 -1 c44 -1 72 26 67
65 l-3 27 -17 -36z"/>
</g>
</svg>
